<mxfile host="app.diagrams.net" modified="2023-04-22T08:31:57.923Z" agent="Mozilla/5.0 (Macintosh; Intel Mac OS X 10_15_7) AppleWebKit/537.36 (KHTML, like Gecko) Chrome/112.0.0.0 Safari/537.36" version="21.1.5" etag="MoCoCAusaEX_PAwGPkhN" type="github">
  <diagram name="Page-1" id="CwJCo_O6WMDLHs7ufPNW">
    <mxGraphModel>
      <root>
        <mxCell id="0" />
        <mxCell id="1" parent="0" />
      </root>
    </mxGraphModel>
  </diagram>
</mxfile>
